<?xml version="1.0" encoding="utf-8"?>
<!-- Generator: Adobe Illustrator 22.1.0, SVG Export Plug-In . SVG Version: 6.00 Build 0)  -->
<svg version="1.1" id="Слой_1" xmlns="http://www.w3.org/2000/svg" xmlns:xlink="http://www.w3.org/1999/xlink" x="0px" y="0px"
	 viewBox="0 0 48 48.006" style="enable-background:new 0 0 48 48.006;" xml:space="preserve">
<g>
	<path d="M36.449,23.34l-17.597-12c-0.247-0.168-0.563-0.184-0.825-0.047c-0.261,0.137-0.425,0.41-0.425,0.707v24
		c0,0.297,0.164,0.57,0.425,0.707c0.118,0.063,0.246,0.094,0.371,0.094c0.161,0,0.317-0.047,0.454-0.141l17.597-12
		c0.219-0.148,0.352-0.394,0.352-0.66C36.801,23.734,36.668,23.488,36.449,23.34L36.449,23.34z M19.199,34.484V13.516L34.578,24
		L19.199,34.484z M19.199,34.484"/>
	<path d="M24,0C10.766,0,0,10.766,0,24c0,13.234,10.766,24,24,24c13.234,0,24-10.766,24-24C48,10.766,37.234,0,24,0L24,0z
		 M24,46.398C11.648,46.398,1.602,36.352,1.602,24C1.602,11.648,11.648,1.602,24,1.602c12.352,0,22.398,10.046,22.398,22.398
		C46.398,36.352,36.352,46.398,24,46.398L24,46.398z M24,46.398"/>
</g>
</svg>
