<?xml version="1.0" encoding="utf-8"?>
<!-- Generator: Adobe Illustrator 22.1.0, SVG Export Plug-In . SVG Version: 6.00 Build 0)  -->
<svg version="1.1" id="Capa_1" xmlns="http://www.w3.org/2000/svg" xmlns:xlink="http://www.w3.org/1999/xlink" x="0px" y="0px"
	 viewBox="-49 141 512 512" style="enable-background:new -49 141 512 512;" xml:space="preserve">
<path d="M424.805,388.104H-10.804c-4.78,0-8.656-3.876-8.656-8.656V202.811c0-14.846,11.399-26.925,25.409-26.925h98.529
	c8.966,0,17.363,5.061,21.917,13.208l13.972,25.152c1.509,2.701,4.053,4.323,6.795,4.323h260.887
	c14.011,0,25.409,12.079,25.409,26.926V379.45C433.461,384.229,429.585,388.104,424.805,388.104z M-2.149,370.793H416.15V245.494
	c0-5.302-3.632-9.615-8.098-9.615H147.164c-8.966,0-17.363-5.061-21.916-13.208l-13.972-25.15c-1.509-2.701-4.054-4.323-6.796-4.323
	H5.951c-4.465,0-8.098,4.313-8.098,9.614v167.981H-2.149z"/>
<path d="M388.902,388.104H29.964c-4.78,0-8.656-3.876-8.656-8.656v-83.851c0-4.78,3.876-8.656,8.656-8.656h358.938
	c4.78,0,8.656,3.876,8.656,8.656v83.851C397.558,384.229,393.682,388.104,388.902,388.104z M38.62,370.793h341.627v-66.539H38.62
	V370.793z"/>
<path d="M408.051,618.114H5.951c-1.271,0-2.578-0.116-3.806-0.338c-12.093-1.552-21.955-10.599-23.514-21.626l-27.368-196.842
	c-1.034-7.406,0.999-14.479,5.725-19.91c4.757-5.468,11.874-8.605,19.523-8.605h460.98c7.647,0,14.764,3.135,19.521,8.604
	c4.725,5.43,6.758,12.502,5.726,19.911l-27.366,196.823c-1.559,11.048-11.423,20.096-23.517,21.646
	C410.628,617.998,409.322,618.114,408.051,618.114z M-23.489,388.104c-2.678,0-4.973,0.943-6.464,2.657
	c-1.409,1.619-1.975,3.748-1.638,6.158l27.366,196.828c0.463,3.277,4.369,6.37,8.704,6.875c0.234,0.027,0.466,0.065,0.697,0.11
	c0.175,0.036,0.483,0.07,0.775,0.07h402.101c0.252,0,0.564-0.028,0.775-0.07c0.23-0.047,0.463-0.082,0.697-0.11
	c4.335-0.505,8.241-3.597,8.706-6.893l27.363-196.804c0-0.001,0-0.002,0.001-0.004c0.336-2.411-0.232-4.541-1.64-6.159
	c-1.491-1.713-3.786-2.656-6.462-2.656h-460.98V388.104z"/>
</svg>
