<?xml version="1.0" encoding="utf-8"?>
<!-- Generator: Adobe Illustrator 22.1.0, SVG Export Plug-In . SVG Version: 6.00 Build 0)  -->
<svg version="1.1" id="Слой_1" xmlns="http://www.w3.org/2000/svg" xmlns:xlink="http://www.w3.org/1999/xlink" x="0px" y="0px"
	 viewBox="0 0 15.445 21.368" style="enable-background:new 0 0 15.445 21.368;" xml:space="preserve">
<path d="M7.725,0L7.725,0C3.451,0,0,3.451,0,7.724c0,1.487,0.474,2.911,1.139,4.079l5.034,8.712
	c0.314,0.569,0.953,0.854,1.552,0.854c0.601,0,1.202-0.284,1.554-0.854l5.028-8.706c0.668-1.171,1.139-2.568,1.139-4.082
	C15.445,3.454,11.994,0,7.725,0L7.725,0z M7.725,10.001c-1.552,0-2.818-1.266-2.818-2.817c0-1.554,1.267-2.82,2.818-2.82
	c1.554,0,2.817,1.267,2.817,2.82C10.542,8.738,9.278,10.001,7.725,10.001L7.725,10.001z M7.725,10.001"/>
</svg>
