<?xml version="1.0" encoding="utf-8"?>
<svg>
    <defs>
        <linearGradient id="gradient">
            <stop offset="0%" style="stop-color: #ff8d06"></stop>
            <stop offset="100%" style="stop-color: #ffef1c"></stop>
        </linearGradient>
    </defs>
</svg>
<!-- Generator: Adobe Illustrator 22.1.0, SVG Export Plug-In . SVG Version: 6.00 Build 0)  -->
<svg version="1.1" id="Слой_1" xmlns="http://www.w3.org/2000/svg" xmlns:xlink="http://www.w3.org/1999/xlink" x="0px" y="0px"
	 width="20px" height="21px" viewBox="0 0 20 21" style="enable-background:new 0 0 20 21;" xml:space="preserve">
<style type="text/css">
	.st0{fill:#1D1D1B;}
</style>
<g>
	<path d="M19.392,19.819l-4.721-4.976c1.497-1.523,2.425-3.619,2.425-5.931c0-4.636-3.724-8.406-8.298-8.406
		c-4.576,0-8.298,3.77-8.298,8.406c0,4.634,3.722,8.406,8.298,8.406c2.008,0,3.851-0.729,5.288-1.935l4.735,4.991
		c0.077,0.082,0.181,0.12,0.286,0.12c0.098,0,0.197-0.036,0.274-0.11C19.536,20.232,19.542,19.977,19.392,19.819L19.392,19.819z
		 M8.798,16.517c-4.14,0-7.507-3.412-7.507-7.605c0-4.194,3.367-7.605,7.507-7.605c4.138,0,7.507,3.41,7.507,7.605
		C16.305,13.105,12.936,16.517,8.798,16.517L8.798,16.517z M8.798,16.517"/>
	<path class="st0" d="M19.106,21c-0.25,0-0.48-0.098-0.648-0.277l-4.419-4.659c-1.514,1.139-3.358,1.76-5.242,1.76
		C3.947,17.824,0,13.826,0,8.912S3.947,0,8.798,0s8.798,3.998,8.798,8.912c0,2.204-0.79,4.29-2.235,5.928l4.392,4.629
		c0.34,0.359,0.33,0.933-0.024,1.279C19.557,20.912,19.337,21,19.106,21z M19.031,20.169C19.031,20.169,19.031,20.169,19.031,20.169
		L19.031,20.169z M8.798,1.813c-3.864,0-7.008,3.185-7.008,7.099c0,3.915,3.144,7.099,7.008,7.099s7.008-3.185,7.008-7.099
		C15.806,4.998,12.662,1.813,8.798,1.813z"/>
</g>
</svg>
