<?xml version="1.0" encoding="utf-8"?>
<svg version="1.1" id="Слой_1" xmlns="http://www.w3.org/2000/svg" xmlns:xlink="http://www.w3.org/1999/xlink" x="0px" y="0px"
	 viewBox="0 0 39.534 41.025" style="enable-background:new 0 0 39.534 41.025;" xml:space="preserve">
<style type="text/css">
	.st0{fill:#1D1D1B;}
</style>
<g>
	<path d="M38.805,39.129l-9.559-9.945c3.031-3.043,4.91-7.233,4.91-11.854c0-9.266-7.539-16.801-16.801-16.801
		c-9.266,0-16.801,7.535-16.801,16.801c0,9.262,7.535,16.801,16.801,16.801c4.066,0,7.797-1.457,10.707-3.867l9.586,9.975
		c0.156,0.164,0.367,0.24,0.578,0.24c0.199,0,0.398-0.072,0.555-0.221C39.098,39.953,39.109,39.445,38.805,39.129L38.805,39.129z
		 M17.356,32.529c-8.383,0-15.199-6.82-15.199-15.2c0-8.383,6.816-15.199,15.199-15.199c8.379,0,15.199,6.816,15.199,15.199
		C32.555,25.709,25.734,32.529,17.356,32.529L17.356,32.529z M17.356,32.529"/>
	<path class="st0" d="M38.227,40.978c-0.363,0-0.697-0.141-0.94-0.396L28.02,30.94c-3.041,2.383-6.809,3.69-10.664,3.69
		c-9.54,0-17.301-7.761-17.301-17.301S7.815,0.028,17.355,0.028s17.301,7.761,17.301,17.301c0,4.436-1.671,8.627-4.715,11.855
		l9.224,9.597c0.24,0.25,0.368,0.579,0.36,0.926c-0.007,0.347-0.148,0.67-0.397,0.91C38.883,40.851,38.563,40.978,38.227,40.978z
		 M28.102,29.582l9.907,10.309c0.13,0.138,0.275,0.148,0.428,0.004c0.115-0.111,0.12-0.304,0.008-0.42l-9.897-10.298l0.345-0.347
		c3.072-3.084,4.765-7.168,4.765-11.501c0-8.989-7.313-16.301-16.301-16.301S1.055,8.341,1.055,17.329s7.313,16.301,16.301,16.301
		c3.777,0,7.467-1.333,10.388-3.752L28.102,29.582z M17.355,33.029c-8.656,0-15.699-7.043-15.699-15.7S8.699,1.63,17.355,1.63
		s15.699,7.042,15.699,15.699S26.012,33.029,17.355,33.029z M17.355,2.63C9.25,2.63,2.656,9.224,2.656,17.329
		c0,8.105,6.594,14.7,14.699,14.7s14.699-6.594,14.699-14.7C32.055,9.224,25.461,2.63,17.355,2.63z"/>
</g>
</svg>

<svg>
    <defs>
        <linearGradient id="workGradient">
            <stop offset="0%" style="stop-color: #7451ab"></stop>
            <stop offset="100%" style="stop-color: #6377e4"></stop>
        </linearGradient>
    </defs>
</svg>

<svg>
    <defs>
        <linearGradient id="gradient">
            <stop offset="0%" style="stop-color: #ff8d06"></stop>
            <stop offset="100%" style="stop-color: #ffef1c"></stop>
        </linearGradient>
    </defs>
</svg>

<svg>
    <defs>
        <linearGradient id="gradientBlue" x1="0" x2="0" y1="0" y2="1">
            <stop style="stop-color: #9faada" offset="0%"></stop>
            <stop style="stop-color: #c8ceeb" offset="100%"></stop>
        </linearGradient>
    </defs>
</svg>

<svg>
    <defs>
        <linearGradient id="gradientBlue2" x1="0" x2="0" y1="0" y2="1">
            <stop style="stop-color: #6475e1" offset="0%"></stop>
            <stop style="stop-color: #7685e4" offset="100%"></stop>
        </linearGradient>
    </defs>
</svg>