<?xml version="1.0" encoding="utf-8"?>
<!-- Generator: Adobe Illustrator 22.1.0, SVG Export Plug-In . SVG Version: 6.00 Build 0)  -->
<svg version="1.1" id="Слой_1" xmlns="http://www.w3.org/2000/svg" xmlns:xlink="http://www.w3.org/1999/xlink" x="0px" y="0px"
	 viewBox="0 0 51.199 51.199" style="enable-background:new 0 0 51.199 51.199;" xml:space="preserve">
<g>
	<path d="M50.293,12.18c-0.582-0.586-1.359-0.907-2.188-0.907h-2.3c-0.442,0-0.801,0.356-0.801,0.801
		c0,0.442,0.359,0.797,0.801,0.797h2.3c0.399,0,0.774,0.156,1.059,0.438c0.281,0.285,0.438,0.66,0.438,1.058v29.274
		c0,1.593-0.622,3.089-1.747,4.214s-2.621,1.747-4.214,1.747H9.832c-2.199,0-4.266-0.86-5.82-2.415
		c-1.555-1.554-2.41-3.621-2.41-5.82V3.031c0-0.789,0.64-1.429,1.429-1.429h36.031c0.79,0,1.434,0.64,1.434,1.429v35.531
		c-0.004,0.161-0.016,1.59,0.992,2.629c0.641,0.657,1.516,0.993,2.602,0.993c0.441,0,0.801-0.36,0.801-0.801
		c0-0.442-0.36-0.801-0.801-0.801c-0.641,0-1.113-0.164-1.445-0.5c-0.555-0.562-0.551-1.469-0.551-1.496V3.031
		c0-1.672-1.36-3.031-3.032-3.031H3.031C1.359,0,0,1.359,0,3.031v38.336c0,2.629,1.023,5.098,2.879,6.953
		c1.859,1.856,4.328,2.879,6.953,2.879h33.809c2.019,0,3.918-0.785,5.343-2.215c1.43-1.425,2.215-3.324,2.215-5.343V14.367
		C51.199,13.539,50.879,12.762,50.293,12.18L50.293,12.18z M50.293,12.18"/>
	<path d="M35.113,25.359H6.152c-0.441,0-0.8,0.356-0.8,0.801c0,0.442,0.359,0.797,0.8,0.797h28.961c0.442,0,0.801-0.355,0.801-0.797
		C35.914,25.715,35.555,25.359,35.113,25.359L35.113,25.359z M35.113,25.359"/>
	<path d="M35.113,32.543H6.152c-0.441,0-0.8,0.355-0.8,0.801c0,0.441,0.359,0.797,0.8,0.797h28.961c0.442,0,0.801-0.356,0.801-0.797
		C35.914,32.898,35.555,32.543,35.113,32.543L35.113,32.543z M35.113,32.543"/>
	<path d="M35.113,39.906H6.152c-0.441,0-0.8,0.36-0.8,0.801s0.359,0.801,0.8,0.801h28.961c0.442,0,0.801-0.36,0.801-0.801
		S35.555,39.906,35.113,39.906L35.113,39.906z M35.113,39.906"/>
	<path d="M35.914,8.336c0-0.441-0.359-0.801-0.801-0.801H6.152c-0.441,0-0.8,0.36-0.8,0.801v11.141c0,0.441,0.359,0.796,0.8,0.796
		h28.961c0.442,0,0.801-0.355,0.801-0.796V8.336z M34.312,18.676H6.953V9.137h27.359V18.676z M34.312,18.676"/>
</g>
</svg>
