<?xml version="1.0" encoding="utf-8"?>
<!-- Generator: Adobe Illustrator 22.1.0, SVG Export Plug-In . SVG Version: 6.00 Build 0)  -->
<svg version="1.1" id="Capa_1" xmlns="http://www.w3.org/2000/svg" xmlns:xlink="http://www.w3.org/1999/xlink" x="0px" y="0px"
	 viewBox="147 141 316 326.255" style="enable-background:new 147 141 316 326.255;" xml:space="preserve">
<path d="M207.172,466.493c-3.736-1.548-6.172-5.194-6.172-9.238v-57.856c-15.829-12.819-28.978-29.012-38.206-47.102
	C152.313,331.751,147,309.562,147,286.346C147,206.202,212.202,141,292.345,141h25.309C397.798,141,463,206.202,463,286.346
	s-65.202,145.345-145.345,145.345h-25.309c-12.509,0-24.89-1.589-36.89-4.729l-37.387,37.366c-1.913,1.911-4.469,2.927-7.071,2.927
	C209.709,467.255,208.409,467.006,207.172,466.493z M255.477,406.18c11.903,3.658,24.307,5.512,36.868,5.512h25.309
	c69.117,0,125.346-56.23,125.346-125.346S386.77,161,317.654,161h-25.309C223.229,161,167,217.23,167,286.346
	c0,39.731,18.23,76.249,50.017,100.189c2.507,1.889,3.983,4.847,3.983,7.988v38.6l24.471-24.458c1.904-1.902,4.458-2.927,7.07-2.927
	C253.521,405.738,254.511,405.883,255.477,406.18z"/>
<path d="M307.8,327.774c-5.522,0-10-4.477-10-10v-24.025c0-8.957,6.13-16.585,14.908-18.549
	c10.834-2.424,18.141-12.266,17.373-23.403c-0.76-11.027-9.649-19.916-20.677-20.676c-6.29-0.434-12.268,1.679-16.842,5.948
	c-4.578,4.273-7.1,10.074-7.1,16.333c0,5.523-4.478,10-10,10s-10-4.477-10-10c0-11.691,4.903-22.973,13.453-30.954
	c8.669-8.093,19.995-12.096,31.863-11.281c20.936,1.443,37.812,18.319,39.255,39.254c1.435,20.821-12.084,39.259-32.234,44.127
	v23.226C317.8,323.297,313.323,327.774,307.8,327.774z"/>
<path d="M307.8,367.33c-2.63,0-5.21-1.06-7.07-2.92c-1.859-1.86-2.93-4.44-2.93-7.08c0-2.63,1.07-5.21,2.93-7.07
	c1.86-1.86,4.44-2.93,7.07-2.93s5.21,1.07,7.07,2.93c1.859,1.86,2.93,4.44,2.93,7.07c0,2.64-1.07,5.21-2.93,7.08
	C313.01,366.27,310.43,367.33,307.8,367.33z"/>
</svg>
