<?xml version="1.0" encoding="utf-8"?>
<!-- Generator: Adobe Illustrator 22.1.0, SVG Export Plug-In . SVG Version: 6.00 Build 0)  -->
<svg version="1.1" id="Capa_1" xmlns="http://www.w3.org/2000/svg" xmlns:xlink="http://www.w3.org/1999/xlink" x="0px" y="0px"
	 viewBox="-5 227.56 424 338.88" style="enable-background:new -5 227.56 424 338.88;" xml:space="preserve">
<path d="M139,382.44h136c4.418,0,8-3.582,8-8c0-38.8-29.12-62.88-76-62.88s-76,24-76,62.88C131,378.858,134.582,382.44,139,382.44z
	 M207,327.56c13.12,0,54.16,2.96,59.44,38.88H147.56C152.84,330.52,193.88,327.56,207,327.56z"/>
<path d="M207,303.56c20.987,0,38-17.013,38-38s-17.013-38-38-38s-38,17.013-38,38C169.044,286.529,186.031,303.516,207,303.56z
	 M207,243.56c12.15,0,22,9.85,22,22s-9.85,22-22,22s-22-9.85-22-22S194.85,243.56,207,243.56z"/>
<path d="M71,495.56c-46.88,0-76,24-76,62.88c0,4.418,3.582,8,8,8h136c4.418,0,8-3.582,8-8C147,519.64,117.88,495.56,71,495.56z
	 M11.56,550.44c5.28-35.92,46.24-38.88,59.44-38.88s54.16,2.96,59.44,38.88H11.56z"/>
<path d="M71,487.56c20.987,0,38-17.013,38-38s-17.013-38-38-38s-38,17.013-38,38l0,0C33.044,470.529,50.031,487.516,71,487.56z
	 M71,427.56c12.15,0,22,9.85,22,22s-9.85,22-22,22s-22-9.85-22-22S58.85,427.56,71,427.56z"/>
<path d="M343,495.56c-46.88,0-76,24-76,62.88c0,4.418,3.582,8,8,8h136c4.418,0,8-3.582,8-8C419,519.64,389.88,495.56,343,495.56z
	 M283.56,550.44c5.28-35.92,46.24-38.88,59.44-38.88s54.16,2.96,59.44,38.88H283.56z"/>
<path d="M343,487.56c20.987,0,38-17.013,38-38s-17.013-38-38-38s-38,17.013-38,38l0,0C305.044,470.529,322.031,487.516,343,487.56z
	 M343,427.56c12.15,0,22,9.85,22,22s-9.85,22-22,22s-22-9.85-22-22S330.85,427.56,343,427.56z"/>
<path d="M215,448.2V401c0-4.418-3.582-8-8-8s-8,3.582-8,8v47.2l-33.36,33.36c-3.159,3.115-3.195,8.201-0.08,11.36
	c3.115,3.159,8.201,3.195,11.36,0.08L207,462.84L237.08,493c3.356,2.874,8.406,2.483,11.28-0.873c2.565-2.995,2.565-7.412,0-10.407
	L215,448.2z"/>
</svg>
