<?xml version="1.0" encoding="utf-8"?>
<!-- Generator: Adobe Illustrator 22.1.0, SVG Export Plug-In . SVG Version: 6.00 Build 0)  -->
<svg version="1.1" id="Capa_1" xmlns="http://www.w3.org/2000/svg" xmlns:xlink="http://www.w3.org/1999/xlink" x="0px" y="0px"
	 viewBox="21 233.48 372 326.96" style="enable-background:new 21 233.48 372 326.96;" xml:space="preserve">
<style type="text/css">
	.st0{fill:#4D2C8C;}
</style>
<path class="st0" d="M341,288.44h-66.88v-38.96c0-8.837-7.163-16-16-16H155.8c-8.837,0-16,7.163-16,16v38.96H73
	c-24,0-52,13.12-52,50.08v171.84c0,36.96,28,50.08,52,50.08h268c38.4,0,52-26.96,52-50.08V338.6C393,301.56,365,288.44,341,288.44
	L341,288.44z M258.12,249.48v38.96H155.88v-38.88L258.12,249.48z M377,510.28c0,10.24-3.52,34.08-36,34.08H73
	c-10.8,0-36-3.36-36-34.08V453.8h120c-0.032,0.586-0.032,1.174,0,1.76v24.72c-0.001,9.809,7.95,17.761,17.758,17.762
	c0.081,0,0.161-0.001,0.242-0.002h24v16c0,4.418,3.582,8,8,8s8-3.582,8-8v-16h24c9.809,0,17.76-7.951,17.76-17.76v0v-24.72
	c0.032-0.586,0.032-1.174,0-1.76h120L377,510.28z M207,459.96c-4.418,0-8,3.582-8,8v14.08h-24c-0.972,0-1.76-0.788-1.76-1.76l0,0
	v-24.72c0-0.972,0.788-1.76,1.76-1.76l0,0h64c0.972,0,1.76,0.788,1.76,1.76v0v24.72c0,0.972-0.788,1.76-1.76,1.76h0h-24v-14.08
	C215,463.542,211.418,459.96,207,459.96z M377,437.8H37v-99.2c0-30.8,25.2-34.08,36-34.08h268c10.8,0,36,3.28,36,34.08V437.8z"/>
</svg>
