<?xml version="1.0" encoding="utf-8"?>
<!-- Generator: Adobe Illustrator 22.1.0, SVG Export Plug-In . SVG Version: 6.00 Build 0)  -->
<svg version="1.1" id="Capa_1" xmlns="http://www.w3.org/2000/svg" xmlns:xlink="http://www.w3.org/1999/xlink" x="0px" y="0px"
	 viewBox="63.96 176.36 286.08 440.96" style="enable-background:new 63.96 176.36 286.08 440.96;" xml:space="preserve">
<path d="M336.84,544.28c2.065-3.953,3.162-8.34,3.2-12.8c0-15.773-12.787-28.56-28.56-28.56h-9.92L264.76,349
	c15.661-0.859,27.661-14.251,26.802-29.912c-0.69-12.578-9.582-23.198-21.842-26.088l32-43.68c0.247-0.381,0.461-0.783,0.64-1.2
	v-0.56c0.354-0.812,0.57-1.677,0.64-2.56l0,0v-60.64c0-4.418-3.582-8-8-8h-30.48c-4.418,0-8,3.582-8,8v16H235.4v-16
	c0-4.418-3.582-8-8-8H191c-4.418,0-8,3.582-8,8v16h-20.96v-16c0-4.418-3.582-8-8-8h-30.72c-4.418,0-8,3.582-8,8v60.16l0,0
	c0.027,0.932,0.216,1.853,0.56,2.72v0.56c0.179,0.417,0.393,0.819,0.64,1.2l32,43.68c-15.267,3.598-24.726,18.891-21.128,34.158
	c2.89,12.26,13.51,21.153,26.088,21.842l-36.8,154.08h-9.6c-15.773,0-28.56,12.787-28.56,28.56c0.026,4.366,1.067,8.666,3.04,12.56
	h-1.6c-8.837,0-16,7.163-16,16v41.44c0,8.837,7.163,16,16,16h254.08c8.837,0,16-7.163,16-16v-41.2
	C350.082,552.331,344.509,545.643,336.84,544.28z M131.32,192.28h14.72v16c0,4.418,3.582,8,8,8H191c4.418,0,8-3.582,8-8v-16h20.24
	v16c0,4.418,3.582,8,8,8h37.04c4.418,0,8-3.582,8-8v-16H287v44.16H131.32L131.32,192.28z M139.32,252.44h140.16l-28.88,39.44h-82.64
	L139.32,252.44z M143.48,320.44c0-6.937,5.623-12.56,12.56-12.56H263c6.937-0.005,12.564,5.615,12.569,12.551
	c0.005,6.937-5.615,12.564-12.551,12.569c-0.006,0-0.012,0-0.018,0H155.8c-6.935,0.133-12.665-5.382-12.798-12.317
	c-0.001-0.054-0.002-0.108-0.002-0.163L143.48,320.44z M170.2,349h78.16l36.72,153.92h-152L170.2,349z M107.08,518.92h204.4
	c6.915-0.553,12.968,4.604,13.522,11.518c0.553,6.915-4.604,12.968-11.518,13.522c-0.667,0.053-1.336,0.053-2.003,0h-204.4
	c-6.915,0.553-12.968-4.604-13.522-11.518c-0.553-6.915,4.604-12.968,11.518-13.521C105.744,518.867,106.413,518.867,107.08,518.92z
	 M334.12,601.56H79.88v-41.52h254.24V601.56z"/>
</svg>
