<?xml version="1.0" encoding="utf-8"?>
<!-- Generator: Adobe Illustrator 22.1.0, SVG Export Plug-In . SVG Version: 6.00 Build 0)  -->
<svg version="1.1" id="Capa_1" xmlns="http://www.w3.org/2000/svg" xmlns:xlink="http://www.w3.org/1999/xlink" x="0px" y="0px"
	 viewBox="-5.317 242.541 424.157 308.859" style="enable-background:new -5.317 242.541 424.157 308.859;" xml:space="preserve">
<path d="M409.88,242.6L239.8,263.24L69.72,242.6c-4.386-0.53-8.372,2.596-8.902,6.982c-0.041,0.338-0.06,0.678-0.058,1.018v116.72
	c-24.522,26.945-25.611,67.786-2.56,96l-60.72,60.56c-3.356,2.874-3.747,7.924-0.873,11.28c2.874,3.356,7.924,3.747,11.28,0.873
	c0.313-0.268,0.605-0.56,0.873-0.873l51.92-51.92v39.44c-0.029,4.069,3,7.512,7.04,8L239,551.4h1.92l170.88-20.72
	c4.04-0.488,7.069-3.931,7.04-8v-272c0.032-4.418-3.524-8.026-7.942-8.058c-0.34-0.002-0.68,0.017-1.018,0.058V242.6z M74.36,376.04
	c22.445-22.419,58.814-22.397,81.232,0.048c22.419,22.445,22.397,58.814-0.048,81.232c-22.426,22.4-58.759,22.4-81.185,0
	c-22.445-22.168-22.669-58.333-0.502-80.778C74.024,376.373,74.192,376.206,74.36,376.04z M231.8,534.44l-155.04-18.8v-36.4
	c34.595,21.173,79.804,10.291,100.976-24.304s10.291-79.804-24.304-100.976c-23.529-14.4-53.143-14.4-76.672,0v-94.4l155.04,18.8
	V534.44z M402.84,515.64l-155.04,18.8v-256l155.04-18.8V515.64z"/>
<path d="M94.28,323.24l112,13.6H207c4.418,0.265,8.215-3.102,8.48-7.52c0.265-4.418-3.102-8.215-7.52-8.48l-112-13.6
	c-4.418-0.53-8.43,2.622-8.96,7.04c-0.53,4.418,2.622,8.43,7.04,8.96H94.28z"/>
<path d="M269.4,336.84h0.96l112-13.6c4.418-0.53,7.57-4.542,7.04-8.96c-0.53-4.418-4.542-7.57-8.96-7.04l-112,13.6
	c-4.418,0.265-7.785,4.062-7.52,8.48C261.185,333.738,264.982,337.105,269.4,336.84L269.4,336.84z"/>
<path d="M269.4,404.2h0.96l112-13.6c4.418-0.53,7.57-4.542,7.04-8.96c-0.53-4.418-4.542-7.57-8.96-7.04l-112,13.6
	c-4.418,0.265-7.785,4.062-7.52,8.48C261.185,401.098,264.982,404.465,269.4,404.2L269.4,404.2z"/>
<path d="M269.4,471.56h0.96l112-13.6c4.418-0.53,7.57-4.542,7.04-8.96c-0.53-4.418-4.542-7.57-8.96-7.04l-112,13.6
	c-4.418,0.265-7.785,4.062-7.52,8.48C261.185,468.458,264.982,471.825,269.4,471.56L269.4,471.56z"/>
</svg>
