<?xml version="1.0" encoding="utf-8"?>
<!-- Generator: Adobe Illustrator 22.1.0, SVG Export Plug-In . SVG Version: 6.00 Build 0)  -->
<svg version="1.1" id="Capa_1" xmlns="http://www.w3.org/2000/svg" xmlns:xlink="http://www.w3.org/1999/xlink" x="0px" y="0px"
	 width="17px" height="13px" viewBox="0 0 17 13" style="enable-background:new 0 0 17 13;" xml:space="preserve">
<style type="text/css">
	.st0{fill:#FFFFFF;}
</style>
<g>
	<g>
		<path class="st0" d="M17,1.5c-0.6,0.3-1.3,0.4-2,0.5c0.7-0.4,1.3-1,1.5-1.8c-0.7,0.4-1.4,0.6-2.2,0.8c-0.6-0.6-1.6-1-2.5-1
			C9.8,0,8.3,1.5,8.3,3.3c0,0.3,0,0.5,0.1,0.7C5.5,3.9,2.9,2.6,1.2,0.6C0.9,1.1,0.7,1.7,0.7,2.3c0,1.1,0.6,2.1,1.5,2.7
			C1.7,5,1.1,4.8,0.7,4.6c0,0,0,0,0,0c0,1.6,1.2,2.9,2.8,3.2C3.2,7.9,2.9,7.9,2.6,7.9c-0.2,0-0.4,0-0.7-0.1c0.5,1.3,1.7,2.3,3.3,2.3
			C4,11,2.5,11.6,0.8,11.6c-0.3,0-0.6,0-0.8,0C1.5,12.5,3.4,13,5.3,13c6.4,0,9.9-5,9.9-9.3c0-0.1,0-0.3,0-0.4
			C15.9,2.8,16.5,2.2,17,1.5z"/>
	</g>
</g>
</svg>
