<?xml version="1.0" encoding="utf-8"?>
<!-- Generator: Adobe Illustrator 22.1.0, SVG Export Plug-In . SVG Version: 6.00 Build 0)  -->
<svg version="1.1" id="Слой_1" xmlns="http://www.w3.org/2000/svg" xmlns:xlink="http://www.w3.org/1999/xlink" x="0px" y="0px"
	 viewBox="0 0 52.6 62.2" style="enable-background:new 0 0 52.6 62.2;" xml:space="preserve">
<path id="Наверх" d="M7.6,48v5H2.2v-5H0v11.6h2.2v-5.1h5.4v5.1h2.2V48H7.6z M16.2,57.4c-0.2,0.3-0.5,0.5-0.9,0.7
	c-0.3,0.2-0.7,0.2-1.1,0.2c-0.3,0-0.6-0.1-0.8-0.2c-0.2-0.2-0.3-0.5-0.3-0.7c0-0.2,0.1-0.3,0.2-0.5c0.1-0.2,0.3-0.3,0.5-0.4
	c0.3-0.1,0.6-0.2,0.9-0.3c0.5-0.1,1-0.1,1.4-0.1L16.2,57.4L16.2,57.4z M12,53.1c0.1,0.1,0.1,0.2,0.2,0.3c0.1,0.1,0.2,0.1,0.3,0.1
	c0.2,0,0.3,0,0.4-0.1c0.1-0.1,0.3-0.2,0.4-0.3c0.2-0.1,0.4-0.2,0.6-0.3c0.3-0.1,0.5-0.1,0.8-0.1c0.4,0,0.8,0.1,1,0.4
	c0.3,0.4,0.4,0.8,0.3,1.2v0.5c-0.6,0-1.1,0.1-1.7,0.1c-0.4,0.1-0.9,0.2-1.3,0.3c-0.3,0.1-0.6,0.2-0.9,0.4c-0.2,0.1-0.4,0.3-0.6,0.5
	c-0.2,0.2-0.3,0.4-0.3,0.6c-0.1,0.2-0.1,0.4-0.1,0.6c0,0.3,0.1,0.7,0.2,1c0.1,0.3,0.3,0.5,0.5,0.7c0.2,0.2,0.5,0.3,0.8,0.4
	c0.3,0.1,0.6,0.1,1,0.1c0.3,0,0.5,0,0.8-0.1c0.2,0,0.5-0.1,0.7-0.2c0.2-0.1,0.4-0.2,0.6-0.4c0.2-0.1,0.4-0.3,0.6-0.5l0.2,0.6
	c0,0.1,0.1,0.3,0.2,0.3c0.1,0.1,0.3,0.1,0.4,0.1h0.9v-5.2c0-0.4-0.1-0.9-0.2-1.3c-0.1-0.4-0.3-0.7-0.6-1c-0.3-0.3-0.6-0.5-1-0.6
	c-0.4-0.2-0.8-0.2-1.3-0.2c-1.3,0-2.5,0.4-3.4,1.3L12,53.1z M21.8,58.2V56h1.5c0.2,0,0.4,0,0.7,0.1c0.2,0,0.3,0.1,0.4,0.2
	c0.1,0.1,0.2,0.2,0.2,0.3c0,0.1,0.1,0.3,0.1,0.4c0,0.3-0.1,0.6-0.4,0.8c-0.3,0.2-0.6,0.3-1,0.3L21.8,58.2L21.8,58.2z M23.1,52.6
	c0.2,0,0.4,0,0.6,0.1c0.1,0,0.3,0.1,0.4,0.2c0.1,0.1,0.2,0.2,0.2,0.3c0,0.1,0.1,0.2,0.1,0.4c0,0.2,0,0.3-0.1,0.5
	c-0.1,0.1-0.2,0.3-0.3,0.4c-0.1,0.1-0.3,0.2-0.4,0.2c-0.2,0.1-0.4,0.1-0.5,0.1h-1.3v-2.1L23.1,52.6L23.1,52.6z M19.9,51.3v8.2h3.4
	c0.4,0,0.8,0,1.2-0.1c0.4-0.1,0.7-0.2,1-0.4c0.3-0.2,0.5-0.5,0.7-0.8c0.2-0.3,0.3-0.7,0.3-1.1c0-0.2,0-0.5-0.1-0.7
	c-0.1-0.2-0.2-0.4-0.4-0.6c-0.2-0.2-0.4-0.3-0.6-0.4c-0.2-0.1-0.5-0.2-0.8-0.2c0.3-0.1,0.5-0.2,0.8-0.3c0.2-0.1,0.3-0.3,0.5-0.5
	c0.1-0.2,0.2-0.4,0.2-0.6c0-0.2,0.1-0.4,0.1-0.5c0-0.3-0.1-0.5-0.2-0.8c-0.1-0.3-0.3-0.5-0.5-0.6c-0.3-0.2-0.6-0.3-0.9-0.4
	c-0.4-0.1-0.9-0.2-1.3-0.1L19.9,51.3L19.9,51.3z M29.5,54.5c0.1-0.5,0.3-1,0.6-1.4c0.6-0.5,1.4-0.6,2.1-0.3c0.2,0.1,0.4,0.2,0.6,0.4
	c0.1,0.2,0.3,0.4,0.3,0.6c0.1,0.2,0.1,0.5,0.1,0.7H29.5z M34.6,55.7c0.1,0,0.3,0,0.4-0.1c0.1-0.2,0.1-0.4,0.1-0.6
	c0-0.5-0.1-1.1-0.3-1.6c-0.2-0.4-0.4-0.8-0.7-1.2c-0.3-0.3-0.7-0.6-1.1-0.7c-0.5-0.2-0.9-0.3-1.4-0.3c-0.6,0-1.1,0.1-1.7,0.3
	c-0.9,0.4-1.7,1.2-2,2.2c-0.2,0.5-0.3,1-0.3,1.6c0,0.6,0.1,1.3,0.3,1.9c0.2,0.5,0.5,1,0.9,1.4c0.4,0.4,0.8,0.7,1.3,0.8
	c0.5,0.2,1,0.3,1.6,0.3c0.3,0,0.6,0,0.9-0.1c0.3,0,0.6-0.1,0.9-0.2c0.3-0.1,0.6-0.3,0.9-0.4c0.3-0.2,0.5-0.4,0.7-0.6l-0.6-0.7
	c-0.1-0.1-0.2-0.2-0.4-0.2c-0.1,0-0.3,0-0.4,0.1c-0.1,0.1-0.3,0.2-0.5,0.3C33,57.9,32.8,58,32.6,58c-0.3,0.1-0.5,0.1-0.8,0.1
	c-0.3,0-0.6,0-0.9-0.1c-0.3-0.1-0.5-0.2-0.7-0.4c-0.2-0.2-0.4-0.5-0.5-0.8c-0.1-0.4-0.2-0.7-0.2-1.1L34.6,55.7L34.6,55.7z
	 M38.5,53.7c0.2-0.3,0.5-0.5,0.8-0.7c0.3-0.2,0.7-0.3,1.1-0.3c0.2,0,0.5,0,0.7,0.1c0.2,0.1,0.4,0.3,0.5,0.5c0.2,0.2,0.3,0.5,0.3,0.8
	C42,54.6,42,55,42,55.4c0,0.4,0,0.8-0.1,1.2c-0.1,0.3-0.2,0.6-0.4,0.9c-0.2,0.2-0.4,0.4-0.6,0.5c-0.3,0.1-0.5,0.2-0.8,0.2
	c-0.3,0-0.6-0.1-0.9-0.2c-0.3-0.1-0.5-0.3-0.7-0.6V53.7z M38.2,51.7c-0.1-0.2-0.3-0.4-0.5-0.4h-1.2v10.9h2v-3.4
	c0.2,0.3,0.5,0.5,0.9,0.6c0.4,0.1,0.8,0.2,1.2,0.2c0.5,0,1-0.1,1.5-0.3c0.4-0.2,0.8-0.5,1.1-0.9c0.3-0.4,0.6-0.9,0.7-1.4
	c0.2-0.6,0.3-1.1,0.3-1.7c0-0.6-0.1-1.2-0.2-1.8c-0.1-0.5-0.3-0.9-0.6-1.3c-0.3-0.3-0.6-0.6-1-0.8c-0.4-0.2-0.8-0.3-1.2-0.3
	c-0.5,0-1,0.1-1.5,0.4c-0.4,0.2-0.8,0.6-1.2,0.9L38.2,51.7z M49.8,55.2l2.7-3.9h-1.8c-0.2,0-0.4,0.1-0.4,0.3l-1.4,2.2
	c-0.1,0.2-0.2,0.3-0.3,0.5l-1.7-2.7c0-0.1-0.1-0.2-0.2-0.2c-0.1,0-0.2-0.1-0.3-0.1h-1.9l2.7,4l-2.8,4.2h1.8c0.1,0,0.2,0,0.3-0.1
	c0.1-0.1,0.2-0.2,0.2-0.3l1.5-2.4c0-0.1,0.1-0.2,0.1-0.2c0-0.1,0.1-0.2,0.1-0.3l1.7,2.9c0.1,0.1,0.1,0.2,0.2,0.3
	c0.1,0.1,0.2,0.1,0.3,0.1h1.9L49.8,55.2z"/>
<g>
	<path d="M48.6,25.3l-3.1,3.2c-1.2,1.2-3.1-0.4-4.2-1.6L27.9,14c-1.2-1.2-3.4-0.8-4.6,0.4L9.2,28.8C8.1,30,6.2,30,5,28.8l-2.2-2.2
		c-1.1-1.1-1.1-3,0-4.1L23.9,1c1.1-1.2,3-1.2,4.2,0l20.5,20.2C49.7,22.3,49.7,24.2,48.6,25.3z"/>
	<path d="M46.8,10.2"/>
</g>
</svg>
