<?xml version="1.0" encoding="utf-8"?>
<!-- Generator: Adobe Illustrator 22.1.0, SVG Export Plug-In . SVG Version: 6.00 Build 0)  -->
<svg version="1.1" id="Capa_1" xmlns="http://www.w3.org/2000/svg" xmlns:xlink="http://www.w3.org/1999/xlink" x="0px" y="0px"
	 width="21px" height="13px" viewBox="0 0 21 13" style="enable-background:new 0 0 21 13;" xml:space="preserve">
<style type="text/css">
	.st0{fill:#FFFFFF;}
</style>
<g>
	<g>
		<path class="st0" d="M20.8,11.6c-0.1-0.1-0.4-0.9-2.1-2.6c-1.8-1.8-1.5-1.5,0.6-4.5c1.3-1.9,1.8-3,1.6-3.5
			c-0.2-0.5-1.1-0.3-1.1-0.3l-3.2,0c0,0-0.2,0-0.4,0.1C16.1,0.8,16,1.1,16,1.1s-0.5,1.4-1.2,2.7c-1.4,2.6-2,2.7-2.2,2.6
			c-0.5-0.4-0.4-1.5-0.4-2.3c0-2.5,0.4-3.6-0.7-3.8C11.2,0.1,11,0,10.1,0C9,0,8,0,7.5,0.3C7.1,0.5,6.8,0.9,7,0.9
			c0.2,0,0.7,0.1,0.9,0.5C8.3,1.9,8.3,3,8.3,3s0.2,3-0.4,3.3c-0.4,0.3-1-0.3-2.3-2.6C4.9,2.5,4.4,1.2,4.4,1.2S4.3,0.9,4.2,0.8
			C4,0.6,3.7,0.6,3.7,0.6l-3,0c0,0-0.5,0-0.6,0.2c-0.1,0.2,0,0.6,0,0.6s2.3,6,5,9c2.4,2.8,5.2,2.6,5.2,2.6h1.3c0,0,0.4,0,0.6-0.3
			c0.2-0.2,0.2-0.6,0.2-0.6s0-1.8,0.8-2.1c0.8-0.3,1.8,1.8,2.8,2.5c0.8,0.6,1.4,0.5,1.4,0.5l2.8,0C20,12.9,21.5,12.8,20.8,11.6z"/>
	</g>
</g>
</svg>
