<?xml version="1.0" encoding="utf-8"?>
<!-- Generator: Adobe Illustrator 22.1.0, SVG Export Plug-In . SVG Version: 6.00 Build 0)  -->
<svg version="1.1" id="Capa_1" xmlns="http://www.w3.org/2000/svg" xmlns:xlink="http://www.w3.org/1999/xlink" x="0px" y="0px"
	 viewBox="-49 141 392 512" style="enable-background:new -49 141 392 512;" xml:space="preserve">
<path d="M-4,653h301c24.814,0,46-20.186,46-45V247c0-24.814-21.186-45-46-45h-45v15c0,24.814-20.186,45-45,45H87
	c-24.814,0-45-20.186-45-45v-15H-4c-24.814,0-45,20.186-45,45v361C-49,632.814-28.814,653-4,653z M252,503
	c-7.564,0-14.291-3.062-19.574-7.7l-40.825,18.745c0.117,1.324,0.399,2.6,0.399,3.955c0,24.814-20.186,45-45,45
	c-12.101,0-23.055-4.856-31.15-12.653l-29.249,14.625C85.528,580.545,72.839,593,57,593c-16.538,0-30-13.462-30-30s13.462-30,30-30
	c5.991,0,11.259,2.214,15.948,5.253l29.603-14.8C102.33,521.646,102,519.868,102,518c0-5.349,1.097-10.408,2.816-15.17
	l-38.681-31.679C63.211,472.105,60.239,473,57,473c-16.538,0-30-13.462-30-30s13.462-30,30-30s30,13.462,30,30
	c0,1.965-0.76,3.682-1.122,5.543l37.95,31.082C130.619,475.507,138.495,473,147,473c12.645,0,24.045,5.283,32.228,13.707
	l44.095-20.248C226.395,453.157,237.78,443,252,443c16.538,0,30,13.462,30,30S268.538,503,252,503z M27,292h240
	c8.291,0,15,6.709,15,15s-6.709,15-15,15H27c-8.291,0-15-6.709-15-15S18.709,292,27,292z M27,352h180c8.291,0,15,6.709,15,15
	s-6.709,15-15,15H27c-8.291,0-15-6.709-15-15S18.709,352,27,352z"/>
<path d="M177,172c0-16.569-13.431-31-30-31s-30,14.431-30,31h-15c-16.569,0-30,13.431-30,30v15c0,8.284,6.716,15,15,15h120
	c8.284,0,15-6.716,15-15v-15c0-16.569-13.431-30-30-30H177z"/>
</svg>
