<?xml version="1.0" encoding="utf-8"?>
<!-- Generator: Adobe Illustrator 22.1.0, SVG Export Plug-In . SVG Version: 6.00 Build 0)  -->
<svg version="1.1" id="Capa_1" xmlns="http://www.w3.org/2000/svg" xmlns:xlink="http://www.w3.org/1999/xlink" x="0px" y="0px"
	 viewBox="46.72 163.04 322.56 465.92" style="enable-background:new 46.72 163.04 322.56 465.92;" xml:space="preserve">
<path d="M208,414.432c-38.4,0-69.12,30.72-69.12,69.12s30.72,69.12,69.12,69.12s69.12-30.72,69.12-69.12
	C277.12,445.664,246.4,414.432,208,414.432z M208,520.928c-20.48,0-37.376-16.896-37.376-37.376
	c0-20.48,16.896-37.376,37.376-37.376s37.376,16.896,37.376,37.376C245.376,504.032,228.48,520.928,208,520.928z"/>
<path d="M320.64,163.04H95.36c-26.624,0-48.64,22.016-48.64,48.64v368.64c0,26.624,22.016,48.64,48.64,48.64h225.28
	c26.624,0,48.64-22.016,48.64-48.64V211.68C369.28,185.056,347.264,163.04,320.64,163.04z M208,578.272
	c-52.224,0-94.72-42.496-94.72-94.72s42.496-94.72,94.72-94.72s94.72,42.496,94.72,94.72S260.224,578.272,208,578.272z
	 M328.32,344.8c0,7.168-5.632,12.8-12.8,12.8H100.48c-7.168,0-12.8-5.632-12.8-12.8v-128c0-7.168,5.632-12.8,12.8-12.8h215.04
	c7.168,0,12.8,5.632,12.8,12.8V344.8z"/>
</svg>
