<?xml version="1.0" encoding="utf-8"?>
<!-- Generator: Adobe Illustrator 22.1.0, SVG Export Plug-In . SVG Version: 6.00 Build 0)  -->
<svg version="1.1" id="Capa_1" xmlns="http://www.w3.org/2000/svg" xmlns:xlink="http://www.w3.org/1999/xlink" x="0px" y="0px"
	 viewBox="-49 187 512 420" style="enable-background:new -49 187 512 420;" xml:space="preserve">
<path d="M207,337c-102.457,0-186.531,79.484-194.24,180h388.48C393.531,416.484,309.457,337,207,337z M147,487
	c-8.284,0-15-6.716-15-15c0-8.286,6.716-15,15-15s15,6.714,15,15C162,480.284,155.284,487,147,487z M207,487
	c-8.284,0-15-6.716-15-15c0-8.286,6.716-15,15-15s15,6.714,15,15C222,480.284,215.284,487,207,487z M267,487
	c-8.284,0-15-6.716-15-15c0-8.286,6.716-15,15-15s15,6.714,15,15C282,480.284,275.284,487,267,487z"/>
<path d="M12,592c0,8.291,6.709,15,15,15h360c8.291,0,15-6.709,15-15v-45H12V592z"/>
<path d="M402,187c-33.137,0-60,26.862-60,60h-35.728l-25.854-51.709c-2.388-4.775-7.148-7.925-12.48-8.262
	c-5.522-0.22-10.459,2.212-13.418,6.65L207,264.959l-47.52-71.279c-2.959-4.438-7.881-6.841-13.418-6.65
	c-5.332,0.337-10.093,3.486-12.48,8.262L107.728,247H72c0-33.138-26.863-60-60-60s-61,26.862-61,60
	c0,29.87,22.89,54.446,51.466,59.039l36.147,77.516c13.806-15.628,29.696-29.335,47.243-40.66l-27.279-58.499
	c1.88-2.34,3.583-4.786,5.101-7.396H117c5.684,0,10.869-3.208,13.418-8.291l18.442-36.885l45.659,68.496
	c2.783,4.175,7.471,6.68,12.48,6.68s9.697-2.505,12.48-6.68l45.659-68.496l18.442,36.885c2.551,5.083,7.736,8.291,13.42,8.291
	h53.322c1.518,2.609,3.221,5.056,5.101,7.396l-27.279,58.499c17.547,11.325,33.437,25.032,47.243,40.66l36.147-77.516
	C440.11,301.446,463,276.87,463,247C463,213.862,435.137,187,402,187z"/>
</svg>
