<?xml version="1.0" encoding="utf-8"?>
<!-- Generator: Adobe Illustrator 22.1.0, SVG Export Plug-In . SVG Version: 6.00 Build 0)  -->
<svg version="1.1" id="Capa_1" xmlns="http://www.w3.org/2000/svg" xmlns:xlink="http://www.w3.org/1999/xlink" x="0px" y="0px"
	 viewBox="-49 141 512 512" style="enable-background:new -49 141 512 512;" xml:space="preserve">
<path d="M463,307c0-24.814-20.186-45-45-45c-21.42,0-39.322,15.068-43.837,35.145L324.455,322H90.545l-50.708-24.855
	C35.322,277.068,17.42,262-4,262c-24.814,0-45,20.186-45,45c0,19.53,12.578,36.024,30,42.237v41.552l-25.605,25.606
	C-47.418,419.207-49,423.016-49,427v30c0,8.291,6.709,15,15,15s15-6.709,15-15v-23.789l15-15l15,15V457c0,8.291,6.709,15,15,15
	s15-6.709,15-15v-30c0-3.984-1.582-7.793-4.395-10.605L11,390.789v-41.552c10.464-3.732,19.048-11.177,24.32-20.804L71,346.273V503
	h272V346.272l35.68-17.84c5.272,9.628,13.856,17.073,24.32,20.804v41.552l-25.605,25.605C374.582,419.207,373,423.016,373,427v30
	c0,8.291,6.709,15,15,15s15-6.709,15-15v-23.789l15-15l15,15V457c0,8.291,6.709,15,15,15s15-6.709,15-15v-30
	c0-3.984-1.582-7.793-4.395-10.605L433,390.789v-41.552C450.422,343.024,463,326.53,463,307z M282,427c0,8.291-6.709,15-15,15H147
	c-8.291,0-15-6.709-15-15v-60c0-8.291,6.709-15,15-15h120c8.291,0,15,6.709,15,15V427z"/>
<path d="M403,533H11c-33.137,0-60,26.862-60,60c0,33.137,26.863,60,60,60h392c33.137,0,60-26.863,60-60
	C463,559.862,436.137,533,403,533z M11,608c-8.284,0-15-6.716-15-15c0-8.286,6.716-15,15-15s15,6.714,15,15
	C26,601.284,19.284,608,11,608z M155.322,623H62.678C67.832,614.145,71,603.984,71,593s-3.168-21.243-8.322-30.1h92.644
	C150.168,571.757,147,582.016,147,593S150.168,614.145,155.322,623z M207,608c-8.284,0-15-6.716-15-15c0-8.286,6.716-15,15-15
	s15,6.714,15,15C222,601.284,215.284,608,207,608z M351.322,623h-92.644c5.154-8.855,8.322-19.016,8.322-30
	s-3.168-21.243-8.322-30.1h92.644C346.168,571.757,343,582.016,343,593S346.168,614.145,351.322,623z M403,608
	c-8.284,0-15-6.716-15-15c0-8.286,6.716-15,15-15s15,6.714,15,15C418,601.284,411.284,608,403,608z"/>
<path d="M252,292v-30h46c8.291,0,15-6.709,15-15v-91c0-8.291-6.709-15-15-15H117c-8.291,0-15,6.709-15,15v91c0,8.291,6.709,15,15,15
	h45v30H252z M237,186c8.284,0,15,6.714,15,15c0,8.284-6.716,15-15,15s-15-6.716-15-15C222,192.714,228.716,186,237,186z M177,186
	c8.284,0,15,6.714,15,15c0,8.284-6.716,15-15,15s-15-6.716-15-15C162,192.714,168.716,186,177,186z"/>
<rect x="162" y="382" width="90" height="30"/>
</svg>
