<?xml version="1.0" encoding="utf-8"?>
<!-- Generator: Adobe Illustrator 22.1.0, SVG Export Plug-In . SVG Version: 6.00 Build 0)  -->
<svg version="1.1" id="Capa_1" xmlns="http://www.w3.org/2000/svg" xmlns:xlink="http://www.w3.org/1999/xlink" x="0px" y="0px"
	 viewBox="-19.304 171.208 452.096 451.584" style="enable-background:new -19.304 171.208 452.096 451.584;" xml:space="preserve">
<g>
	<path d="M417.944,333h-30.72v-23.04c0-8.483-6.877-15.36-15.36-15.36h-6.656c-15.655-72.018-79.388-123.388-153.088-123.392h-10.24
		c-73.7,0.004-137.433,51.374-153.088,123.392h-6.656c-8.483,0-15.36,6.877-15.36,15.36V333h-30.72
		c-8.483,0-15.36,6.877-15.36,15.36v73.728c0,8.483,6.877,15.36,15.36,15.36l0,0h30.208v23.04c0,8.483,6.877,15.36,15.36,15.36
		h3.584v57.344c0,4.835,2.276,9.387,6.144,12.288l101.888,74.24c2.659,1.994,5.893,3.072,9.216,3.072h89.088
		c3.323,0,6.557-1.078,9.216-3.072l101.376-73.728c3.868-2.901,6.144-7.453,6.144-12.288v-57.856h3.584
		c8.483,0,15.36-6.877,15.36-15.36v-23.04h30.208c8.483,0,15.36-6.877,15.36-15.36l0,0V348.36
		C432.797,340.073,426.226,333.276,417.944,333z M356.504,445.128H245.912L219.8,405.704c-4.689-7.069-14.221-8.999-21.291-4.309
		c-1.71,1.134-3.175,2.6-4.309,4.309l-26.112,39.424H57.496V325.32h299.008V445.128z"/>
</g>
</svg>
